<svg xmlns="http://www.w3.org/2000/svg" width="24" height="24" viewBox="0 0 24 24">
  <g id="作废" transform="translate(-619 -978)">
    <rect id="矩形_6520" data-name="矩形 6520" width="24" height="24" transform="translate(619 978)" fill="none"/>
    <path id="路径_39888" data-name="路径 39888" d="M172.62,85.333a1.96,1.96,0,0,0-1.954,1.954v15.63a1.96,1.96,0,0,0,1.954,1.954h6.674l.8-.8,1.1-1.113-1.169-1.179L178.66,100.4l1.366-1.375,1.372-1.381,1.387-1.4,1.385,1.4L185.32,98.8l.977-.985V91.194l-5.861-5.861Zm6.838,1.465,5.373,5.373h-5.373V86.8Zm3.325,12.221-1.372,1.381,2.536,2.555-2.468,2.488,1.371,1.381,2.469-2.488,2.469,2.488,1.371-1.381-2.468-2.488,2.536-2.555-1.372-1.381-2.536,2.555-2.536-2.555Z" transform="translate(451.333 893.667)" fill="#f94f4f"/>
  </g>
</svg>
