<svg xmlns="http://www.w3.org/2000/svg" width="24" height="24" viewBox="0 0 24 24">
  <g id="确认" transform="translate(-490 -980)">
    <rect id="矩形_6521" data-name="矩形 6521" width="24" height="24" transform="translate(490 980)" fill="none"/>
    <g id="组_30845" data-name="组 30845" transform="translate(396 896.667)">
      <path id="路径_39892" data-name="路径 39892" d="M105.878,93.652a5.716,5.716,0,0,1,5.672-5.719,3.114,3.114,0,0,0-3.073-2.6H99.119A3.122,3.122,0,0,0,96,88.452V103.01a3.122,3.122,0,0,0,3.119,3.12h9.359a3.122,3.122,0,0,0,3.12-3.12V99.371a5.716,5.716,0,0,1-5.719-5.719Zm-2.08,3.12H99.639a.78.78,0,1,1,0-1.56H103.8a.78.78,0,1,1,0,1.56Zm0-4.159H99.639a.78.78,0,0,1,0-1.56H103.8a.78.78,0,1,1,0,1.56Z" fill="#38f"/>
      <path id="路径_39893" data-name="路径 39893" d="M548.679,234.667a4.68,4.68,0,1,0,4.68,4.68,4.679,4.679,0,0,0-4.68-4.68Zm2.762,3.431-2.431,3.4a.779.779,0,0,1-1.1.172l-1.823-1.361a.78.78,0,0,1,.933-1.25l1.185.885,1.968-2.755a.78.78,0,1,1,1.269.907Z" transform="translate(-437.082 -145.695)" fill="#38f"/>
    </g>
  </g>
</svg>
